<svg id="圖層_1" data-name="圖層 1" xmlns="http://www.w3.org/2000/svg" xmlns:xlink="http://www.w3.org/1999/xlink" viewBox="0 0 584.05 235"><defs><style>.cls-1{fill:url(#未命名漸層_31);}.cls-2,.cls-3,.cls-4,.cls-5,.cls-6,.cls-8{fill:#a52cdd;}.cls-2{opacity:0.05;}.cls-3{opacity:0.1;}.cls-4{opacity:0.2;}.cls-5{opacity:0.3;}.cls-6{opacity:0.4;}.cls-7{font-size:44.48px;font-family:DFYuan-W5-WIN-BF, DFYuanMedium-B5;letter-spacing:0.41em;}.cls-10,.cls-7{fill:#0ecfe2;}.cls-9{fill:url(#未命名漸層_33);}</style><linearGradient id="未命名漸層_31" x1="53.96" y1="71.46" x2="365.33" y2="71.46" gradientUnits="userSpaceOnUse"><stop offset="0.02" stop-color="#0ecfe2"/><stop offset="0.38" stop-color="#a52cdd"/><stop offset="0.47" stop-color="#a22bd9" stop-opacity="0.98"/><stop offset="0.55" stop-color="#9a29ce" stop-opacity="0.93"/><stop offset="0.64" stop-color="#8b25bb" stop-opacity="0.85"/><stop offset="0.72" stop-color="#7720a0" stop-opacity="0.72"/><stop offset="0.8" stop-color="#5e197d" stop-opacity="0.57"/><stop offset="0.88" stop-color="#3e1153" stop-opacity="0.38"/><stop offset="0.95" stop-color="#190722" stop-opacity="0.15"/><stop offset="1" stop-opacity="0"/></linearGradient><linearGradient id="未命名漸層_33" x1="62.65" y1="147.73" x2="251.21" y2="147.73" gradientUnits="userSpaceOnUse"><stop offset="0.02" stop-color="#0ecfe2"/><stop offset="1" stop-color="#a52cdd"/></linearGradient></defs><title>愛音樂logo</title><rect class="cls-1" x="53.96" y="60.18" width="311.38" height="22.57"/><circle class="cls-2" cx="82.78" cy="71.46" r="11.28"/><circle class="cls-3" cx="77.02" cy="71.46" r="11.28"/><circle class="cls-4" cx="71.25" cy="71.46" r="11.28"/><circle class="cls-5" cx="65.49" cy="71.46" r="11.28"/><circle class="cls-6" cx="59.72" cy="71.46" r="11.28"/><text class="cls-7" transform="translate(380.36 76.24)">愛音樂</text><path class="cls-8" d="M44.71,100.75H63.55V194.7H44.71Z"/><circle class="cls-8" cx="53.96" cy="71.46" r="11.28"/><path class="cls-9" d="M228.14,100.75h24V194.7H226.35V136.5l-55.17,56h-4.75l-55.8-56v58.2H84.94V100.75h24.32l59.62,59.88Z"/><path class="cls-10" d="M328.21,193.1V181.25a42.61,42.61,0,0,1-13.3,9.91A34.63,34.63,0,0,1,300,194.7a31,31,0,0,1-16.11-4.37,28.29,28.29,0,0,1-11.14-11.84Q269,171,269,153.65v-52.9h18.27v52.63q0,14.53,4.16,20.3t14.6,5.76q13.05,0,22.19-12.74V100.75h18.26V193.1Z"/><path class="cls-10" d="M361.37,186.47V166.8a83.17,83.17,0,0,0,15.81,8.78q8.07,3.36,13.6,3.36a17,17,0,0,0,9.83-2.81q4.13-2.81,4.12-6.72a9.08,9.08,0,0,0-2.66-6.68q-2.67-2.65-11.49-7.68-17.67-9.83-23.14-16.81A24.1,24.1,0,0,1,362,123a21.36,21.36,0,0,1,8.28-17.37q8.28-6.72,21.33-6.72,13.55,0,27.8,7.62v18.07q-16.26-9.84-26.6-9.83a14.78,14.78,0,0,0-8.58,2.26,7,7,0,0,0-3.26,6,8.62,8.62,0,0,0,3,6.13q3,2.91,10.38,7l6.53,3.71Q423.9,153,423.9,168.81A23,23,0,0,1,415,187.43q-8.88,7.27-22.84,7.27a55.65,55.65,0,0,1-14.65-1.76A98.1,98.1,0,0,1,361.37,186.47Z"/><path class="cls-10" d="M448.13,99a10.7,10.7,0,0,1,7.73,3.11,10.21,10.21,0,0,1,3.21,7.63,10.45,10.45,0,0,1-3.21,7.63,10.56,10.56,0,0,1-7.73,3.21,10.12,10.12,0,0,1-7.43-3.27,10.42,10.42,0,0,1,0-15.05A10.14,10.14,0,0,1,448.13,99Zm-9,31h18.27V193.1H439.09Z"/><path class="cls-10" d="M548.83,171.52v18.06a76.91,76.91,0,0,1-26.9,5.12q-21.69,0-34.58-12.85t-12.9-34.42q0-21.78,12.55-35.13T520,99a55.44,55.44,0,0,1,12.8,1.35,85,85,0,0,1,14,5.07v19.47Q533,116,521.12,116q-12.35,0-20.27,8.68t-7.93,22.13q0,14.16,8.58,22.49t23.14,8.33Q535.17,177.64,548.83,171.52Z"/></svg>